<?xml version="1.0" standalone="no"?>
<svg viewBox="0 0 200 200" xmlns="http://www.w3.org/2000/svg">
  <path fill="#24A148" d="M45.7,-78.9C58.9,-71.5,68.9,-58.6,76.7,-44.5C84.5,-30.4,90,-15.2,90.2,0.1C90.4,15.4,85.3,30.8,77.2,44.5C69.2,58.2,58.3,70.1,44.9,77.3C31.6,84.6,15.8,87.2,0,87.1C-15.8,87.1,-31.5,84.5,-44.2,76.9C-56.8,69.2,-66.4,56.5,-74,42.9C-81.7,29.2,-87.4,14.6,-88.1,-0.4C-88.9,-15.4,-84.5,-30.8,-76.8,-44.4C-69,-57.9,-57.9,-69.5,-44.6,-76.8C-31.2,-84.1,-15.6,-87,0.3,-87.6C16.3,-88.1,32.5,-86.3,45.7,-78.9Z" transform="translate(100 100)" />
</svg>
